<svg id="app-store" xmlns="http://www.w3.org/2000/svg" width="38.848" height="38.848" viewBox="0 0 38.848 38.848">
  <g id="Group_1138083" data-name="Group 1138083">
    <path id="Path_1564015" data-name="Path 1564015" d="M30.881,0H7.967A7.976,7.976,0,0,0,0,7.967V30.881a7.976,7.976,0,0,0,7.967,7.967H30.881a7.976,7.976,0,0,0,7.967-7.967V7.967A7.976,7.976,0,0,0,30.881,0ZM11.962,29.934a1.9,1.9,0,0,1-3.286-1.9l.373-.646H13.43Zm-3.577-4.06a1.9,1.9,0,0,1,0-3.794h3.731l5.118-8.865-1.387-2.4a1.9,1.9,0,0,1,.694-2.591h0a1.9,1.9,0,0,1,2.591.694l.292.506.292-.506A1.9,1.9,0,1,1,23,10.813L16.5,22.08h4.1l2.19,3.794Zm22.08,0H28.923l1.249,2.164a1.9,1.9,0,1,1-3.286,1.9L20.3,18.526l2.19-3.794,4.242,7.347h3.731a1.9,1.9,0,0,1,0,3.794Z" fill="#1d1d1d"/>
  </g>
</svg>