<svg xmlns="http://www.w3.org/2000/svg" width="36.419" height="38.848" viewBox="0 0 36.419 38.848">
  <g id="Group_1159846" data-name="Group 1159846" transform="translate(-10034.582 -1610.697)">
    <g id="google-play" transform="translate(10034.582 1610.697)">
      <g id="Group_1138085" data-name="Group 1138085" transform="translate(2.45 0)">
        <g id="Group_1138084" data-name="Group 1138084" transform="translate(0 0)">
          <path id="Path_1564016" data-name="Path 1564016" d="M53.116.622A4.932,4.932,0,0,0,48.3.634L66,16.961l5.946-5.946Z" transform="translate(-48.302 0)" fill="#1d1d1d"/>
        </g>
      </g>
      <g id="Group_1138087" data-name="Group 1138087" transform="translate(0 2.304)">
        <g id="Group_1138086" data-name="Group 1138086" transform="translate(0)">
          <path id="Path_1564017" data-name="Path 1564017" d="M16.694,30.365a4.527,4.527,0,0,0-.68,2.372V62.226a4.542,4.542,0,0,0,.634,2.314l17.8-17.8Z" transform="translate(-16.014 -30.365)" fill="#1d1d1d"/>
        </g>
      </g>
      <g id="Group_1138089" data-name="Group 1138089" transform="translate(21.933 12.236)">
        <g id="Group_1138088" data-name="Group 1138088" transform="translate(0)">
          <path id="Path_1564018" data-name="Path 1564018" d="M317.147,164.407l-5.672-3.13-6.373,6.371,7.81,7.2,4.237-2.338a4.588,4.588,0,0,0,0-8.107Z" transform="translate(-305.102 -161.277)" fill="#1d1d1d"/>
        </g>
      </g>
      <g id="Group_1138091" data-name="Group 1138091" transform="translate(2.37 20.326)">
        <g id="Group_1138090" data-name="Group 1138090" transform="translate(0)">
          <path id="Path_1564019" data-name="Path 1564019" d="M65.093,267.9,47.246,285.748a4.921,4.921,0,0,0,4.895.046l20.241-11.171Z" transform="translate(-47.246 -267.901)" fill="#1d1d1d"/>
        </g>
      </g>
    </g>
  </g>
</svg>